<svg xmlns="http://www.w3.org/2000/svg" viewBox="0 0 684.21 144.92"><defs><style>.cls-1,.cls-2,.cls-3,.cls-4{fill:none;stroke:#66fcf1;stroke-miterlimit:10;}.cls-1{stroke-width:2.07px;}.cls-2{stroke-width:1.64px;}.cls-3{stroke-width:6.56px;}.cls-4{stroke-width:4.92px;}.cls-5{font-size:90px;fill:#66fcf1;font-family:EuphemiaUCAS-Bold, Euphemia UCAS;font-weight:700;}</style></defs><g id="Layer_2" data-name="Layer 2"><g id="Layer_2-2" data-name="Layer 2"><circle class="cls-1" cx="22.76" cy="18.98" r="3.76"/><ellipse class="cls-2" cx="22.76" cy="18.98" rx="20.59" ry="6.84"/><ellipse class="cls-2" cx="22.76" cy="18.98" rx="6.84" ry="20.59" transform="translate(-6.44 13.92) rotate(-30)"/><ellipse class="cls-2" cx="22.76" cy="18.98" rx="20.59" ry="6.84" transform="matrix(0.5, -0.87, 0.87, 0.5, -5.06, 29.2)"/><circle class="cls-1" cx="69.08" cy="45.72" r="3.76"/><ellipse class="cls-2" cx="69.08" cy="45.72" rx="20.59" ry="6.84"/><ellipse class="cls-2" cx="69.08" cy="45.72" rx="6.84" ry="20.59" transform="translate(-13.61 40.66) rotate(-30)"/><ellipse class="cls-2" cx="69.08" cy="45.72" rx="20.59" ry="6.84" transform="matrix(0.5, -0.87, 0.87, 0.5, -5.06, 82.68)"/><circle class="cls-1" cx="22.76" cy="125.95" r="3.76"/><ellipse class="cls-2" cx="22.76" cy="125.95" rx="20.59" ry="6.84"/><ellipse class="cls-2" cx="22.76" cy="125.95" rx="6.84" ry="20.59" transform="translate(-59.92 28.25) rotate(-30)"/><ellipse class="cls-2" cx="22.76" cy="125.95" rx="20.59" ry="6.84" transform="translate(-97.69 82.68) rotate(-60)"/><circle class="cls-1" cx="69.08" cy="101.18" r="3.76"/><ellipse class="cls-2" cx="69.08" cy="101.18" rx="20.59" ry="6.84"/><ellipse class="cls-2" cx="69.08" cy="101.18" rx="6.84" ry="20.59" transform="translate(-41.34 48.09) rotate(-30)"/><ellipse class="cls-2" cx="69.08" cy="101.18" rx="20.59" ry="6.84" transform="matrix(0.5, -0.87, 0.87, 0.5, -53.09, 110.41)"/><circle class="cls-3" cx="22.76" cy="72.46" r="19.48"/><line class="cls-4" x1="22.76" y1="52.98" x2="22.76" y2="22.74"/><line class="cls-4" x1="39.57" y1="62.63" x2="65.95" y2="47.81"/><line class="cls-4" x1="39.16" y1="82.97" x2="65.96" y2="99.08"/><line class="cls-4" x1="22.76" y1="91.94" x2="22.76" y2="122.19"/><text class="cls-5" transform="translate(116.57 101.18)">AtomicKafka</text></g></g></svg>