<svg xmlns="http://www.w3.org/2000/svg" viewBox="0 0 728.71 144.92"><defs><style>.cls-1{font-size:90px;fill:#66fcf1;font-family:EuphemiaUCAS-Bold, Euphemia UCAS;font-weight:700;}.cls-2,.cls-3,.cls-4,.cls-5{fill:none;stroke:#66fcf1;stroke-miterlimit:10;}.cls-2{stroke-width:6.56px;}.cls-3{stroke-width:2.07px;}.cls-4{stroke-width:1.64px;}.cls-5{stroke-width:4.92px;}</style></defs><g id="Layer_2" data-name="Layer 2"><g id="Layer_2-2" data-name="Layer 2"><text class="cls-1" transform="translate(161.06 101.18)">AtomicKafka</text><circle class="cls-2" cx="67.66" cy="72.46" r="19.48"/><circle class="cls-3" cx="113.91" cy="103.11" r="3.76"/><ellipse class="cls-4" cx="113.91" cy="103.11" rx="20.59" ry="6.84"/><ellipse class="cls-4" cx="113.91" cy="103.11" rx="6.84" ry="20.59" transform="translate(-36.29 70.77) rotate(-30)"/><ellipse class="cls-4" cx="113.91" cy="103.11" rx="20.59" ry="6.84" transform="translate(-32.34 150.21) rotate(-60)"/><line class="cls-5" x1="84" y1="84.89" x2="110.8" y2="101.01"/><circle class="cls-3" cx="67.66" cy="18.98" r="3.76"/><ellipse class="cls-4" cx="67.66" cy="18.98" rx="20.59" ry="6.84"/><ellipse class="cls-4" cx="67.66" cy="18.98" rx="6.84" ry="20.59" transform="translate(-0.42 36.37) rotate(-30)"/><ellipse class="cls-4" cx="67.66" cy="18.98" rx="20.59" ry="6.84" transform="translate(17.39 68.09) rotate(-60)"/><line class="cls-5" x1="67.66" y1="52.98" x2="67.66" y2="22.74"/><circle class="cls-3" cx="67.66" cy="125.94" r="3.76"/><ellipse class="cls-4" cx="67.66" cy="125.94" rx="20.59" ry="6.84"/><ellipse class="cls-4" cx="67.66" cy="125.94" rx="6.84" ry="20.59" transform="translate(-53.91 50.7) rotate(-30)"/><ellipse class="cls-4" cx="67.66" cy="125.94" rx="20.59" ry="6.84" transform="matrix(0.5, -0.87, 0.87, 0.5, -75.24, 121.57)"/><line class="cls-5" x1="67.66" y1="91.94" x2="67.66" y2="122.19"/><circle class="cls-3" cx="21.41" cy="103.1" r="3.76"/><ellipse class="cls-4" cx="21.41" cy="103.1" rx="6.84" ry="20.59" transform="translate(-49.06 24.85) rotate(-30.27)"/><ellipse class="cls-4" cx="21.41" cy="103.1" rx="20.59" ry="6.84" transform="translate(-78.74 70.57) rotate(-60.27)"/><ellipse class="cls-4" cx="21.41" cy="103.1" rx="20.59" ry="6.84" transform="matrix(1, 0, 0, 1, -0.49, 0.1)"/><line class="cls-5" x1="50.78" y1="85.95" x2="24.65" y2="101.2"/></g></g></svg>